M48
;DRILL file {KiCad 4.0.7} date 08/15/18 16:11:43
;FORMAT={-:-/ absolute / inch / decimal}
FMAT,2
INCH,TZ
T1C0.031
T2C0.039
%
G90
G05
M72
T1
X3.85Y-2.55
X3.85Y-2.65
X3.85Y-2.75
X3.85Y-2.85
X3.85Y-2.95
X3.85Y-3.05
X3.85Y-3.15
X3.85Y-3.25
X3.85Y-3.45
X3.85Y-3.55
X3.85Y-3.65
X3.85Y-3.75
X3.85Y-3.85
X3.85Y-3.95
X3.85Y-4.05
X3.85Y-4.15
X3.85Y-4.25
X3.85Y-4.35
X3.85Y-4.45
X3.85Y-4.55
X3.85Y-4.65
X3.85Y-4.75
X3.85Y-4.85
X3.85Y-4.95
X3.85Y-5.05
X3.85Y-5.15
X3.85Y-5.25
X3.85Y-5.35
X3.85Y-5.45
X3.85Y-5.55
X3.85Y-5.65
X3.85Y-5.75
X3.85Y-5.85
X3.85Y-5.95
X3.85Y-6.05
X3.85Y-6.15
X3.85Y-6.25
X3.85Y-6.35
X3.85Y-6.45
X3.85Y-6.55
X3.85Y-6.65
X3.85Y-6.75
X3.85Y-6.85
X3.85Y-6.95
X3.85Y-7.05
X3.85Y-7.15
X3.85Y-7.25
X3.85Y-7.35
X3.85Y-7.45
X3.85Y-7.55
X3.85Y-7.65
X3.85Y-7.75
X3.85Y-7.85
X3.85Y-7.95
X3.85Y-8.05
X3.85Y-8.15
X3.85Y-8.25
X3.85Y-8.35
X3.85Y-8.45
X3.85Y-8.55
X3.85Y-8.65
X3.85Y-8.75
X3.85Y-8.85
X3.85Y-8.95
X3.85Y-9.05
X3.85Y-9.15
X3.85Y-9.25
X3.85Y-9.35
X3.85Y-9.45
X3.85Y-9.55
X3.85Y-9.65
X3.85Y-9.75
X4.25Y-3.
X4.25Y-3.05
X4.25Y-3.1
X4.25Y-3.25
X4.25Y-3.3
X4.25Y-3.35
X4.5Y-3.7
X4.5Y-3.85
X4.5Y-4.
X4.5Y-4.15
X4.5Y-5.2
X4.5Y-5.35
X4.5Y-5.5
X4.5Y-5.65
X4.5Y-6.7
X4.5Y-6.85
X4.5Y-7.
X4.5Y-7.15
X4.5Y-8.2
X4.5Y-8.35
X4.5Y-8.5
X4.5Y-8.65
X4.6Y-2.75
X4.6Y-2.8
X4.6Y-2.85
X4.6Y-3.
X4.6Y-3.05
X4.6Y-3.1
X4.9Y-2.5
X4.9Y-2.55
X4.9Y-2.6
X4.9Y-2.75
X4.9Y-2.8
X4.9Y-2.85
X5.1Y-3.7
X5.1Y-3.85
X5.1Y-4.
X5.1Y-4.15
X5.1Y-5.2
X5.1Y-5.35
X5.1Y-5.5
X5.1Y-5.65
X5.1Y-6.7
X5.1Y-6.85
X5.1Y-7.
X5.1Y-7.15
X5.1Y-8.2
X5.1Y-8.35
X5.1Y-8.5
X5.1Y-8.65
X5.3Y-3.7
X5.3Y-4.3
X5.3Y-5.2
X5.3Y-5.8
X5.3Y-6.7
X5.3Y-7.3
X5.3Y-8.2
X5.3Y-8.8
X5.4Y-2.3
X5.4Y-2.35
X5.4Y-2.4
X5.4Y-2.55
X5.4Y-2.6
X5.4Y-2.65
X5.45Y-3.7
X5.45Y-4.3
X5.45Y-5.2
X5.45Y-5.8
X5.45Y-6.7
X5.45Y-7.3
X5.45Y-8.2
X5.45Y-8.8
X5.6Y-3.7
X5.6Y-4.3
X5.6Y-5.2
X5.6Y-5.8
X5.6Y-6.7
X5.6Y-7.3
X5.6Y-8.2
X5.6Y-8.8
X5.75Y-3.7
X5.75Y-4.3
X5.75Y-5.2
X5.75Y-5.8
X5.75Y-6.7
X5.75Y-7.3
X5.75Y-8.2
X5.75Y-8.8
X5.9Y-2.25
X5.9Y-2.45
X5.9Y-2.6
X5.9Y-2.75
X5.9Y-2.9
X5.9Y-3.05
X5.9Y-3.2
X5.9Y-3.35
X6.1Y-3.7
X6.1Y-3.8
X6.1Y-3.9
X6.1Y-4.
X6.1Y-4.1
X6.1Y-4.2
X6.1Y-4.3
X6.1Y-4.4
X6.1Y-5.2
X6.1Y-5.3
X6.1Y-5.4
X6.1Y-5.5
X6.1Y-5.6
X6.1Y-5.7
X6.1Y-5.8
X6.1Y-5.9
X6.1Y-6.7
X6.1Y-6.8
X6.1Y-6.9
X6.1Y-7.
X6.1Y-7.1
X6.1Y-7.2
X6.1Y-7.3
X6.1Y-7.4
X6.1Y-8.2
X6.1Y-8.3
X6.1Y-8.4
X6.1Y-8.5
X6.1Y-8.6
X6.1Y-8.7
X6.1Y-8.8
X6.1Y-8.9
X6.4Y-3.6
X6.4Y-3.7
X6.4Y-3.8
X6.4Y-3.9
X6.4Y-4.
X6.4Y-4.1
X6.4Y-4.2
X6.4Y-4.3
X6.4Y-4.4
X6.4Y-5.1
X6.4Y-5.2
X6.4Y-5.3
X6.4Y-5.4
X6.4Y-5.5
X6.4Y-5.6
X6.4Y-5.7
X6.4Y-5.8
X6.4Y-5.9
X6.4Y-6.6
X6.4Y-6.7
X6.4Y-6.8
X6.4Y-6.9
X6.4Y-7.
X6.4Y-7.1
X6.4Y-7.2
X6.4Y-7.3
X6.4Y-7.4
X6.4Y-8.1
X6.4Y-8.2
X6.4Y-8.3
X6.4Y-8.4
X6.4Y-8.5
X6.4Y-8.6
X6.4Y-8.7
X6.4Y-8.8
X6.4Y-8.9
X6.5Y-2.25
X6.5Y-2.45
X6.5Y-2.6
X6.5Y-2.75
X6.5Y-2.9
X6.5Y-3.05
X6.5Y-3.2
X6.5Y-3.35
X6.55Y-4.45
X6.65Y-2.65
X6.65Y-2.75
X6.65Y-2.85
X6.65Y-2.95
X6.65Y-3.05
X6.65Y-3.15
X6.65Y-3.25
X6.65Y-3.35
X6.65Y-3.7
X6.65Y-3.9
X6.65Y-4.05
X6.65Y-4.2
X6.65Y-4.35
X6.65Y-5.2
X6.65Y-5.4
X6.65Y-5.55
X6.65Y-5.7
X6.65Y-5.85
X6.65Y-6.7
X6.65Y-6.9
X6.65Y-7.05
X6.65Y-7.2
X6.65Y-7.35
X6.65Y-8.2
X6.65Y-8.4
X6.65Y-8.55
X6.65Y-8.7
X6.65Y-8.85
X6.85Y-3.7
X6.85Y-5.2
X6.85Y-6.7
X6.85Y-8.2
X6.875Y-3.9
X6.875Y-4.05
X6.875Y-4.2
X6.875Y-4.35
X6.875Y-5.4
X6.875Y-5.55
X6.875Y-5.7
X6.875Y-5.85
X6.875Y-6.9
X6.875Y-7.05
X6.875Y-7.2
X6.875Y-7.35
X6.875Y-8.4
X6.875Y-8.55
X6.875Y-8.7
X6.875Y-8.85
X6.95Y-2.65
X6.95Y-2.75
X6.95Y-2.85
X6.95Y-2.95
X6.95Y-3.05
X6.95Y-3.15
X6.95Y-3.25
X6.95Y-3.35
X7.Y-4.35
X7.Y-5.85
X7.Y-7.35
X7.Y-8.85
X7.1Y-3.4
X7.1Y-4.2
X7.1Y-5.7
X7.1Y-7.2
X7.1Y-8.7
X7.2Y-2.65
X7.2Y-2.85
X7.2Y-3.
X7.2Y-3.15
X7.2Y-3.3
X7.2Y-4.05
X7.2Y-5.55
X7.2Y-6.85
X7.2Y-7.05
X7.2Y-8.65
X7.2Y-8.9
X7.3Y-3.9
X7.3Y-5.4
X7.3Y-8.1
X7.3Y-8.4
X7.35Y-5.9
X7.35Y-6.85
X7.4Y-2.65
X7.425Y-2.85
X7.425Y-3.
X7.425Y-3.15
X7.425Y-3.3
X7.5Y-3.3
X7.5Y-3.9
X7.6Y-3.15
X7.65Y-5.2
X7.65Y-5.35
X7.65Y-5.5
X7.65Y-5.65
X7.65Y-6.2
X7.65Y-6.35
X7.65Y-6.5
X7.65Y-6.65
X7.65Y-7.25
X7.65Y-7.4
X7.65Y-7.55
X7.65Y-7.7
X7.65Y-8.3
X7.65Y-8.45
X7.65Y-8.6
X7.65Y-8.75
X7.7Y-3.
X7.75Y-4.1
X7.9Y-3.6
X7.9Y-3.7
X7.9Y-3.8
X7.9Y-3.9
X7.9Y-4.
X7.9Y-4.1
X8.Y-3.7
X8.Y-3.9
X8.Y-4.
X8.1Y-2.55
X8.2Y-2.55
X8.2Y-2.65
X8.25Y-5.2
X8.25Y-5.35
X8.25Y-5.5
X8.25Y-5.65
X8.25Y-6.2
X8.25Y-6.35
X8.25Y-6.5
X8.25Y-6.65
X8.25Y-6.8
X8.25Y-7.25
X8.25Y-7.4
X8.25Y-7.55
X8.25Y-7.7
X8.25Y-8.3
X8.25Y-8.45
X8.25Y-8.6
X8.25Y-8.75
X8.3Y-2.55
X8.3Y-2.65
X8.3Y-3.5
X8.4Y-2.55
X8.4Y-2.65
X8.4Y-4.4
X8.45Y-5.2
X8.45Y-5.8
X8.45Y-6.2
X8.45Y-6.8
X8.45Y-7.25
X8.45Y-7.85
X8.45Y-8.3
X8.45Y-8.9
X8.5Y-2.55
X8.5Y-2.65
X8.5Y-4.4
X8.5Y-4.6
X8.6Y-2.55
X8.6Y-2.65
X8.6Y-4.4
X8.6Y-4.6
X8.6Y-5.2
X8.6Y-5.8
X8.6Y-6.2
X8.6Y-6.8
X8.6Y-7.25
X8.6Y-7.85
X8.6Y-8.3
X8.6Y-8.9
X8.7Y-2.55
X8.7Y-2.65
X8.7Y-3.3122
X8.7Y-3.45
X8.7Y-4.4
X8.7Y-4.6
X8.75Y-5.2
X8.75Y-5.8
X8.75Y-6.2
X8.75Y-6.8
X8.75Y-7.25
X8.75Y-7.85
X8.75Y-8.3
X8.75Y-8.9
X8.8Y-2.55
X8.8Y-4.4
X8.8Y-4.6
X8.9Y-2.55
X8.9Y-4.4
X8.9Y-4.6
X8.9Y-5.2
X8.9Y-5.8
X8.9Y-6.2
X8.9Y-6.8
X8.9Y-7.25
X8.9Y-7.85
X8.9Y-8.3
X8.9Y-8.9
X9.Y-3.
X9.Y-4.4
X9.Y-4.6
X9.05Y-8.2
X9.05Y-9.05
X9.1Y-4.4
X9.1Y-4.6
X9.175Y-9.35
X9.175Y-9.5
X9.2Y-4.4
X9.2Y-4.6
X9.25Y-3.45
X9.25Y-3.65
X9.25Y-5.2
X9.25Y-5.3
X9.25Y-5.4
X9.25Y-5.5
X9.25Y-5.6
X9.25Y-5.7
X9.25Y-5.8
X9.25Y-5.9
X9.25Y-6.2
X9.25Y-6.3
X9.25Y-6.4
X9.25Y-6.5
X9.25Y-6.6
X9.25Y-6.7
X9.25Y-6.8
X9.25Y-6.9
X9.25Y-7.25
X9.25Y-7.35
X9.25Y-7.45
X9.25Y-7.55
X9.25Y-7.65
X9.25Y-7.75
X9.25Y-7.85
X9.25Y-7.95
X9.25Y-8.3
X9.25Y-8.4
X9.25Y-8.5
X9.25Y-8.6
X9.25Y-8.7
X9.25Y-8.8
X9.25Y-8.9
X9.25Y-9.
X9.3Y-4.4
X9.35Y-2.55
X9.4Y-9.35
X9.4Y-9.5
X9.45Y-2.55
X9.45Y-3.45
X9.45Y-3.65
X9.45Y-4.4
X9.55Y-2.55
X9.55Y-5.2
X9.55Y-5.3
X9.55Y-5.4
X9.55Y-5.5
X9.55Y-5.6
X9.55Y-5.7
X9.55Y-5.8
X9.55Y-5.9
X9.55Y-6.05
X9.55Y-6.2
X9.55Y-6.3
X9.55Y-6.4
X9.55Y-6.5
X9.55Y-6.6
X9.55Y-6.7
X9.55Y-6.8
X9.55Y-6.9
X9.55Y-7.25
X9.55Y-7.35
X9.55Y-7.45
X9.55Y-7.55
X9.55Y-7.65
X9.55Y-7.75
X9.55Y-7.85
X9.55Y-7.95
X9.55Y-8.2
X9.55Y-8.3
X9.55Y-8.4
X9.55Y-8.5
X9.55Y-8.6
X9.55Y-8.7
X9.55Y-8.8
X9.55Y-8.9
X9.55Y-9.
X9.55Y-9.35
X9.65Y-4.4
X9.65Y-4.5
X9.65Y-8.9
X9.65Y-9.05
X9.7Y-5.95
X9.7Y-6.2
X9.7Y-7.25
X9.75Y-4.4
X9.75Y-4.5
X9.75Y-7.
X9.75Y-8.8
X9.8Y-5.2
X9.8Y-5.4
X9.8Y-5.55
X9.8Y-5.7
X9.8Y-5.85
X9.8Y-6.2
X9.8Y-6.4
X9.8Y-6.55
X9.8Y-6.7
X9.8Y-6.85
X9.8Y-7.25
X9.8Y-7.45
X9.8Y-7.6
X9.8Y-7.75
X9.8Y-7.9
X9.85Y-4.4
X9.85Y-4.5
X9.85Y-8.65
X9.95Y-4.4
X9.95Y-8.3
X9.95Y-8.5
X9.95Y-8.65
X9.95Y-8.8
X9.95Y-8.95
X10.Y-5.2
X10.Y-6.2
X10.Y-7.25
X10.025Y-5.4
X10.025Y-5.55
X10.025Y-5.7
X10.025Y-5.85
X10.025Y-6.4
X10.025Y-6.55
X10.025Y-6.7
X10.025Y-6.85
X10.025Y-7.45
X10.025Y-7.6
X10.025Y-7.75
X10.025Y-7.9
X10.05Y-9.9
X10.15Y-5.85
X10.15Y-6.2
X10.15Y-6.85
X10.15Y-7.9
X10.15Y-8.3
X10.15Y-9.35
X10.15Y-9.525
X10.15Y-9.75
X10.15Y-9.9
X10.175Y-8.5
X10.175Y-8.65
X10.175Y-8.8
X10.175Y-8.95
X10.2Y-5.15
X10.25Y-4.35
X10.25Y-5.7
X10.25Y-6.3
X10.25Y-6.7
X10.25Y-7.75
X10.25Y-9.9
X10.3Y-8.8
X10.3Y-9.35
X10.35Y-5.55
X10.35Y-6.55
X10.35Y-7.1
X10.35Y-7.6
X10.35Y-9.9
X10.4Y-8.65
X10.4Y-9.35
X10.45Y-9.9
X10.5Y-8.8
X10.55Y-9.9
X10.6Y-8.5
X10.6Y-8.65
T2
X8.195Y-3.7
X8.195Y-3.8
X8.195Y-3.9
X8.295Y-3.7
X8.295Y-3.8
X8.295Y-3.9
X8.3Y-2.8
X8.3Y-4.7
X8.4Y-2.8
X8.4Y-4.7
X8.5Y-2.8
X8.5Y-4.7
X8.6Y-2.8
X8.6Y-4.7
X8.7Y-2.8
X8.7Y-4.7
X8.8Y-2.8
X8.8Y-4.7
X8.9Y-4.7
X9.Y-2.8
X9.Y-3.15
X9.Y-3.65
X9.Y-4.7
X9.1Y-2.8
X9.16Y-4.7
X9.2Y-2.8
X9.25Y-3.2
X9.26Y-4.7
X9.3Y-2.8
X9.35Y-3.2
X9.36Y-4.7
X9.4Y-2.8
X9.45Y-3.2
X9.46Y-4.7
X9.5Y-2.8
X9.56Y-4.7
X9.6Y-2.8
X9.66Y-4.7
X9.7Y-2.8
X9.7Y-3.15
X9.7Y-3.65
X9.76Y-4.7
X9.86Y-4.7
X9.96Y-4.7
X10.06Y-4.7
T0
M30
