M48
;DRILL file {KiCad 4.0.7} date 06/21/18 11:25:59
;FORMAT={-:-/ absolute / inch / decimal}
FMAT,2
INCH,TZ
T1C0.031
T2C0.039
%
G90
G05
M72
T1
X8.45Y-1.35
X8.45Y-1.45
X8.45Y-1.55
X8.45Y-1.65
X8.45Y-1.75
X8.45Y-1.85
X8.45Y-1.95
X8.45Y-2.05
X8.45Y-2.25
X8.45Y-2.35
X8.45Y-2.45
X8.45Y-2.55
X8.45Y-2.65
X8.45Y-2.75
X8.45Y-2.85
X8.45Y-2.95
X8.45Y-3.05
X8.45Y-3.15
X8.45Y-3.25
X8.45Y-3.35
X8.45Y-3.45
X8.45Y-3.55
X8.45Y-3.65
X8.45Y-3.75
X8.45Y-3.85
X8.45Y-3.95
X8.45Y-4.05
X8.45Y-4.15
X8.45Y-4.25
X8.45Y-4.35
X8.45Y-4.45
X8.45Y-4.55
X8.45Y-4.65
X8.45Y-4.75
X8.45Y-4.85
X8.45Y-4.95
X8.45Y-5.05
X8.45Y-5.15
X8.45Y-5.25
X8.45Y-5.35
X8.45Y-5.45
X8.45Y-5.55
X8.45Y-5.65
X8.45Y-5.75
X8.45Y-5.85
X8.45Y-5.95
X8.45Y-6.05
X8.45Y-6.15
X8.45Y-6.25
X8.45Y-6.35
X8.45Y-6.45
X8.45Y-6.55
X8.45Y-6.65
X8.45Y-6.75
X8.45Y-6.85
X8.45Y-6.95
X8.45Y-7.05
X8.45Y-7.15
X8.45Y-7.25
X8.45Y-7.35
X8.45Y-7.45
X8.45Y-7.55
X8.45Y-7.65
X8.45Y-7.75
X8.45Y-7.85
X8.45Y-7.95
X8.45Y-8.05
X8.45Y-8.15
X8.45Y-8.25
X8.45Y-8.35
X8.45Y-8.45
X8.45Y-8.55
T2
X2.1654Y-1.9685
X2.1654Y-2.3622
X2.1654Y-3.1496
X2.1654Y-3.937
X2.1654Y-4.7244
X2.1654Y-5.5118
X2.1654Y-6.2992
X2.1654Y-7.0866
X2.1654Y-7.874
X2.9528Y-1.9685
X2.9528Y-2.3622
X2.9528Y-3.1496
X2.9528Y-3.937
X2.9528Y-4.7244
X2.9528Y-5.5118
X2.9528Y-6.2992
X2.9528Y-7.0866
X2.9528Y-7.874
X3.7402Y-1.9685
X3.7402Y-2.3622
X3.7402Y-3.1496
X3.7402Y-3.937
X3.7402Y-4.7244
X3.7402Y-5.5118
X3.7402Y-6.2992
X3.7402Y-7.0866
X3.7402Y-7.874
X4.5276Y-1.9685
X4.5276Y-2.3622
X4.5276Y-3.1496
X4.5276Y-3.937
X4.5276Y-4.7244
X4.5276Y-5.5118
X4.5276Y-6.2992
X4.5276Y-7.0866
X4.5276Y-7.874
X5.315Y-1.9685
X5.315Y-2.3622
X5.315Y-3.1496
X5.315Y-3.937
X5.315Y-4.7244
X5.315Y-5.5118
X5.315Y-6.2992
X5.315Y-7.0866
X5.315Y-7.874
X6.1024Y-1.9685
X6.1024Y-2.3622
X6.1024Y-3.1496
X6.1024Y-3.937
X6.1024Y-4.7244
X6.1024Y-5.5118
X6.1024Y-6.2992
X6.1024Y-7.0866
X6.1024Y-7.874
X6.8898Y-1.9685
X6.8898Y-2.3622
X6.8898Y-3.1496
X6.8898Y-3.937
X6.8898Y-4.7244
X6.8898Y-5.5118
X6.8898Y-6.2992
X6.8898Y-7.0866
X6.8898Y-7.874
X7.6772Y-1.9685
X7.6772Y-2.3622
X7.6772Y-3.1496
X7.6772Y-3.937
X7.6772Y-4.7244
X7.6772Y-5.5118
X7.6772Y-6.2992
X7.6772Y-7.0866
X7.6772Y-7.874
T0
M30
