G04 #@! TF.FileFunction,Copper,L1,Top,Signal*
%FSLAX46Y46*%
G04 Gerber Fmt 4.6, Leading zero omitted, Abs format (unit mm)*
G04 Created by KiCad (PCBNEW 4.0.7) date 06/21/18 11:26:02*
%MOMM*%
%LPD*%
G01*
G04 APERTURE LIST*
%ADD10C,0.100000*%
%ADD11R,1.800000X1.800000*%
%ADD12C,1.800000*%
%ADD13C,2.200000*%
G04 APERTURE END LIST*
D10*
D11*
X214630000Y-217170000D03*
D12*
X214630000Y-214630000D03*
X214630000Y-212090000D03*
X214630000Y-209550000D03*
X214630000Y-207010000D03*
X214630000Y-204470000D03*
X214630000Y-201930000D03*
X214630000Y-199390000D03*
X214630000Y-196850000D03*
X214630000Y-194310000D03*
D11*
X214630000Y-191770000D03*
D12*
X214630000Y-189230000D03*
X214630000Y-186690000D03*
X214630000Y-184150000D03*
X214630000Y-181610000D03*
X214630000Y-179070000D03*
X214630000Y-176530000D03*
X214630000Y-173990000D03*
X214630000Y-171450000D03*
X214630000Y-168910000D03*
D11*
X214630000Y-166370000D03*
D12*
X214630000Y-163830000D03*
X214630000Y-161290000D03*
X214630000Y-158750000D03*
X214630000Y-156210000D03*
X214630000Y-153670000D03*
X214630000Y-151130000D03*
X214630000Y-148590000D03*
X214630000Y-146050000D03*
X214630000Y-143510000D03*
D11*
X214630000Y-140970000D03*
D12*
X214630000Y-138430000D03*
X214630000Y-135890000D03*
X214630000Y-133350000D03*
X214630000Y-130810000D03*
X214630000Y-128270000D03*
X214630000Y-125730000D03*
X214630000Y-123190000D03*
X214630000Y-120650000D03*
X214630000Y-118110000D03*
D11*
X214630000Y-115570000D03*
D12*
X214630000Y-113030000D03*
X214630000Y-110490000D03*
X214630000Y-107950000D03*
X214630000Y-105410000D03*
X214630000Y-102870000D03*
X214630000Y-100330000D03*
X214630000Y-97790000D03*
X214630000Y-95250000D03*
X214630000Y-92710000D03*
D11*
X214630000Y-90170000D03*
D12*
X214630000Y-87630000D03*
X214630000Y-85090000D03*
X214630000Y-82550000D03*
X214630000Y-80010000D03*
X214630000Y-77470000D03*
X214630000Y-74930000D03*
X214630000Y-72390000D03*
X214630000Y-69850000D03*
X214630000Y-67310000D03*
D11*
X214630000Y-64770000D03*
D12*
X214630000Y-62230000D03*
X214630000Y-59690000D03*
X214630000Y-57150000D03*
D11*
X214630000Y-34290000D03*
D12*
X214630000Y-36830000D03*
X214630000Y-39370000D03*
X214630000Y-41910000D03*
X214630000Y-44450000D03*
X214630000Y-46990000D03*
X214630000Y-49530000D03*
X214630000Y-52070000D03*
D13*
X55000000Y-200000000D03*
X75000000Y-200000000D03*
X95000000Y-200000000D03*
X115000000Y-200000000D03*
X135000000Y-200000000D03*
X155000000Y-200000000D03*
X175000000Y-200000000D03*
X195000000Y-200000000D03*
X55000000Y-180000000D03*
X75000000Y-180000000D03*
X95000000Y-180000000D03*
X115000000Y-180000000D03*
X135000000Y-180000000D03*
X155000000Y-180000000D03*
X175000000Y-180000000D03*
X195000000Y-180000000D03*
X55000000Y-160000000D03*
X75000000Y-160000000D03*
X95000000Y-160000000D03*
X115000000Y-160000000D03*
X135000000Y-160000000D03*
X155000000Y-160000000D03*
X175000000Y-160000000D03*
X195000000Y-160000000D03*
X55000000Y-140000000D03*
X75000000Y-140000000D03*
X95000000Y-140000000D03*
X115000000Y-140000000D03*
X135000000Y-140000000D03*
X155000000Y-140000000D03*
X175000000Y-140000000D03*
X195000000Y-140000000D03*
X55000000Y-120000000D03*
X75000000Y-120000000D03*
X95000000Y-120000000D03*
X115000000Y-120000000D03*
X135000000Y-120000000D03*
X155000000Y-120000000D03*
X175000000Y-120000000D03*
X195000000Y-120000000D03*
X55000000Y-100000000D03*
X75000000Y-100000000D03*
X95000000Y-100000000D03*
X115000000Y-100000000D03*
X135000000Y-100000000D03*
X155000000Y-100000000D03*
X175000000Y-100000000D03*
X195000000Y-100000000D03*
X55000000Y-80000000D03*
X75000000Y-80000000D03*
X95000000Y-80000000D03*
X115000000Y-80000000D03*
X135000000Y-80000000D03*
X155000000Y-80000000D03*
X175000000Y-80000000D03*
X195000000Y-80000000D03*
X55000000Y-60000000D03*
X75000000Y-60000000D03*
X95000000Y-60000000D03*
X115000000Y-60000000D03*
X135000000Y-60000000D03*
X155000000Y-60000000D03*
X175000000Y-60000000D03*
X195000000Y-60000000D03*
X55000000Y-50000000D03*
X75000000Y-50000000D03*
X95000000Y-50000000D03*
X115000000Y-50000000D03*
X135000000Y-50000000D03*
X155000000Y-50000000D03*
X175000000Y-50000000D03*
X195000000Y-50000000D03*
M02*
