G04 #@! TF.FileFunction,Copper,L2,Bot,Signal*
%FSLAX46Y46*%
G04 Gerber Fmt 4.6, Leading zero omitted, Abs format (unit mm)*
G04 Created by KiCad (PCBNEW 4.0.7) date 06/21/18 11:26:02*
%MOMM*%
%LPD*%
G01*
G04 APERTURE LIST*
%ADD10C,0.100000*%
%ADD11R,1.800000X1.800000*%
%ADD12C,1.800000*%
%ADD13C,2.200000*%
%ADD14C,0.800000*%
G04 APERTURE END LIST*
D10*
D11*
X214630000Y-217170000D03*
D12*
X214630000Y-214630000D03*
X214630000Y-212090000D03*
X214630000Y-209550000D03*
X214630000Y-207010000D03*
X214630000Y-204470000D03*
X214630000Y-201930000D03*
X214630000Y-199390000D03*
X214630000Y-196850000D03*
X214630000Y-194310000D03*
D11*
X214630000Y-191770000D03*
D12*
X214630000Y-189230000D03*
X214630000Y-186690000D03*
X214630000Y-184150000D03*
X214630000Y-181610000D03*
X214630000Y-179070000D03*
X214630000Y-176530000D03*
X214630000Y-173990000D03*
X214630000Y-171450000D03*
X214630000Y-168910000D03*
D11*
X214630000Y-166370000D03*
D12*
X214630000Y-163830000D03*
X214630000Y-161290000D03*
X214630000Y-158750000D03*
X214630000Y-156210000D03*
X214630000Y-153670000D03*
X214630000Y-151130000D03*
X214630000Y-148590000D03*
X214630000Y-146050000D03*
X214630000Y-143510000D03*
D11*
X214630000Y-140970000D03*
D12*
X214630000Y-138430000D03*
X214630000Y-135890000D03*
X214630000Y-133350000D03*
X214630000Y-130810000D03*
X214630000Y-128270000D03*
X214630000Y-125730000D03*
X214630000Y-123190000D03*
X214630000Y-120650000D03*
X214630000Y-118110000D03*
D11*
X214630000Y-115570000D03*
D12*
X214630000Y-113030000D03*
X214630000Y-110490000D03*
X214630000Y-107950000D03*
X214630000Y-105410000D03*
X214630000Y-102870000D03*
X214630000Y-100330000D03*
X214630000Y-97790000D03*
X214630000Y-95250000D03*
X214630000Y-92710000D03*
D11*
X214630000Y-90170000D03*
D12*
X214630000Y-87630000D03*
X214630000Y-85090000D03*
X214630000Y-82550000D03*
X214630000Y-80010000D03*
X214630000Y-77470000D03*
X214630000Y-74930000D03*
X214630000Y-72390000D03*
X214630000Y-69850000D03*
X214630000Y-67310000D03*
D11*
X214630000Y-64770000D03*
D12*
X214630000Y-62230000D03*
X214630000Y-59690000D03*
X214630000Y-57150000D03*
D11*
X214630000Y-34290000D03*
D12*
X214630000Y-36830000D03*
X214630000Y-39370000D03*
X214630000Y-41910000D03*
X214630000Y-44450000D03*
X214630000Y-46990000D03*
X214630000Y-49530000D03*
X214630000Y-52070000D03*
D13*
X55000000Y-200000000D03*
X75000000Y-200000000D03*
X95000000Y-200000000D03*
X115000000Y-200000000D03*
X135000000Y-200000000D03*
X155000000Y-200000000D03*
X175000000Y-200000000D03*
X195000000Y-200000000D03*
X55000000Y-180000000D03*
X75000000Y-180000000D03*
X95000000Y-180000000D03*
X115000000Y-180000000D03*
X135000000Y-180000000D03*
X155000000Y-180000000D03*
X175000000Y-180000000D03*
X195000000Y-180000000D03*
X55000000Y-160000000D03*
X75000000Y-160000000D03*
X95000000Y-160000000D03*
X115000000Y-160000000D03*
X135000000Y-160000000D03*
X155000000Y-160000000D03*
X175000000Y-160000000D03*
X195000000Y-160000000D03*
X55000000Y-140000000D03*
X75000000Y-140000000D03*
X95000000Y-140000000D03*
X115000000Y-140000000D03*
X135000000Y-140000000D03*
X155000000Y-140000000D03*
X175000000Y-140000000D03*
X195000000Y-140000000D03*
X55000000Y-120000000D03*
X75000000Y-120000000D03*
X95000000Y-120000000D03*
X115000000Y-120000000D03*
X135000000Y-120000000D03*
X155000000Y-120000000D03*
X175000000Y-120000000D03*
X195000000Y-120000000D03*
X55000000Y-100000000D03*
X75000000Y-100000000D03*
X95000000Y-100000000D03*
X115000000Y-100000000D03*
X135000000Y-100000000D03*
X155000000Y-100000000D03*
X175000000Y-100000000D03*
X195000000Y-100000000D03*
X55000000Y-80000000D03*
X75000000Y-80000000D03*
X95000000Y-80000000D03*
X115000000Y-80000000D03*
X135000000Y-80000000D03*
X155000000Y-80000000D03*
X175000000Y-80000000D03*
X195000000Y-80000000D03*
X55000000Y-60000000D03*
X75000000Y-60000000D03*
X95000000Y-60000000D03*
X115000000Y-60000000D03*
X135000000Y-60000000D03*
X155000000Y-60000000D03*
X175000000Y-60000000D03*
X195000000Y-60000000D03*
X55000000Y-50000000D03*
X75000000Y-50000000D03*
X95000000Y-50000000D03*
X115000000Y-50000000D03*
X135000000Y-50000000D03*
X155000000Y-50000000D03*
X175000000Y-50000000D03*
X195000000Y-50000000D03*
D14*
X214630000Y-217170000D02*
X213360000Y-217170000D01*
X65820000Y-210820000D02*
X55000000Y-200000000D01*
X207010000Y-210820000D02*
X65820000Y-210820000D01*
X213360000Y-217170000D02*
X207010000Y-210820000D01*
X214630000Y-214630000D02*
X213360000Y-214630000D01*
X84550000Y-209550000D02*
X75000000Y-200000000D01*
X208280000Y-209550000D02*
X84550000Y-209550000D01*
X213360000Y-214630000D02*
X208280000Y-209550000D01*
X214630000Y-212090000D02*
X213360000Y-212090000D01*
X103280000Y-208280000D02*
X95000000Y-200000000D01*
X209550000Y-208280000D02*
X103280000Y-208280000D01*
X213360000Y-212090000D02*
X209550000Y-208280000D01*
X214630000Y-209550000D02*
X213360000Y-209550000D01*
X122010000Y-207010000D02*
X115000000Y-200000000D01*
X210820000Y-207010000D02*
X122010000Y-207010000D01*
X213360000Y-209550000D02*
X210820000Y-207010000D01*
X214630000Y-207010000D02*
X213360000Y-207010000D01*
X140740000Y-205740000D02*
X135000000Y-200000000D01*
X212090000Y-205740000D02*
X140740000Y-205740000D01*
X213360000Y-207010000D02*
X212090000Y-205740000D01*
X214630000Y-204470000D02*
X159470000Y-204470000D01*
X159470000Y-204470000D02*
X155000000Y-200000000D01*
X214630000Y-201930000D02*
X213360000Y-201930000D01*
X178200000Y-203200000D02*
X175000000Y-200000000D01*
X212090000Y-203200000D02*
X178200000Y-203200000D01*
X213360000Y-201930000D02*
X212090000Y-203200000D01*
X214630000Y-199390000D02*
X213360000Y-199390000D01*
X196930000Y-201930000D02*
X195000000Y-200000000D01*
X210820000Y-201930000D02*
X196930000Y-201930000D01*
X213360000Y-199390000D02*
X210820000Y-201930000D01*
X214630000Y-196850000D02*
X213360000Y-196850000D01*
X66770000Y-191770000D02*
X55000000Y-180000000D01*
X208280000Y-191770000D02*
X66770000Y-191770000D01*
X213360000Y-196850000D02*
X208280000Y-191770000D01*
X214630000Y-194310000D02*
X213360000Y-194310000D01*
X85500000Y-190500000D02*
X75000000Y-180000000D01*
X209550000Y-190500000D02*
X85500000Y-190500000D01*
X213360000Y-194310000D02*
X209550000Y-190500000D01*
X214630000Y-191770000D02*
X213360000Y-191770000D01*
X104060002Y-189060002D02*
X95000000Y-180000000D01*
X210650002Y-189060002D02*
X104060002Y-189060002D01*
X213360000Y-191770000D02*
X210650002Y-189060002D01*
X214630000Y-189230000D02*
X213360000Y-189230000D01*
X122960000Y-187960000D02*
X115000000Y-180000000D01*
X212090000Y-187960000D02*
X122960000Y-187960000D01*
X213360000Y-189230000D02*
X212090000Y-187960000D01*
X214630000Y-186690000D02*
X141690000Y-186690000D01*
X141690000Y-186690000D02*
X135000000Y-180000000D01*
X214630000Y-184150000D02*
X213360000Y-184150000D01*
X160420000Y-185420000D02*
X155000000Y-180000000D01*
X212090000Y-185420000D02*
X160420000Y-185420000D01*
X213360000Y-184150000D02*
X212090000Y-185420000D01*
X214630000Y-181610000D02*
X213360000Y-181610000D01*
X179150000Y-184150000D02*
X175000000Y-180000000D01*
X210820000Y-184150000D02*
X179150000Y-184150000D01*
X213360000Y-181610000D02*
X210820000Y-184150000D01*
X214630000Y-179070000D02*
X213360000Y-179070000D01*
X197880000Y-182880000D02*
X195000000Y-180000000D01*
X209550000Y-182880000D02*
X197880000Y-182880000D01*
X213360000Y-179070000D02*
X209550000Y-182880000D01*
X214630000Y-176530000D02*
X213360000Y-176530000D01*
X67720000Y-172720000D02*
X55000000Y-160000000D01*
X209550000Y-172720000D02*
X67720000Y-172720000D01*
X213360000Y-176530000D02*
X209550000Y-172720000D01*
X214630000Y-173990000D02*
X213360000Y-173990000D01*
X86450000Y-171450000D02*
X75000000Y-160000000D01*
X210820000Y-171450000D02*
X86450000Y-171450000D01*
X213360000Y-173990000D02*
X210820000Y-171450000D01*
X214630000Y-171450000D02*
X213360000Y-171450000D01*
X105180000Y-170180000D02*
X95000000Y-160000000D01*
X212090000Y-170180000D02*
X105180000Y-170180000D01*
X213360000Y-171450000D02*
X212090000Y-170180000D01*
X214630000Y-168910000D02*
X123910000Y-168910000D01*
X123910000Y-168910000D02*
X115000000Y-160000000D01*
X214630000Y-166370000D02*
X213360000Y-166370000D01*
X142640000Y-167640000D02*
X135000000Y-160000000D01*
X212090000Y-167640000D02*
X142640000Y-167640000D01*
X213360000Y-166370000D02*
X212090000Y-167640000D01*
X214630000Y-163830000D02*
X213360000Y-163830000D01*
X161370000Y-166370000D02*
X155000000Y-160000000D01*
X210820000Y-166370000D02*
X161370000Y-166370000D01*
X213360000Y-163830000D02*
X210820000Y-166370000D01*
X214630000Y-161290000D02*
X213360000Y-161290000D01*
X180100000Y-165100000D02*
X175000000Y-160000000D01*
X209550000Y-165100000D02*
X180100000Y-165100000D01*
X213360000Y-161290000D02*
X209550000Y-165100000D01*
X214630000Y-158750000D02*
X213360000Y-158750000D01*
X198830000Y-163830000D02*
X195000000Y-160000000D01*
X208280000Y-163830000D02*
X198830000Y-163830000D01*
X213360000Y-158750000D02*
X208280000Y-163830000D01*
X214630000Y-156210000D02*
X213360000Y-156210000D01*
X67400000Y-152400000D02*
X55000000Y-140000000D01*
X209550000Y-152400000D02*
X67400000Y-152400000D01*
X213360000Y-156210000D02*
X209550000Y-152400000D01*
X214630000Y-153670000D02*
X213360000Y-153670000D01*
X86130000Y-151130000D02*
X75000000Y-140000000D01*
X210820000Y-151130000D02*
X86130000Y-151130000D01*
X213360000Y-153670000D02*
X210820000Y-151130000D01*
X214630000Y-151130000D02*
X213360000Y-151130000D01*
X104860000Y-149860000D02*
X95000000Y-140000000D01*
X212090000Y-149860000D02*
X104860000Y-149860000D01*
X213360000Y-151130000D02*
X212090000Y-149860000D01*
X214630000Y-148590000D02*
X123590000Y-148590000D01*
X123590000Y-148590000D02*
X115000000Y-140000000D01*
X214630000Y-146050000D02*
X213360000Y-146050000D01*
X142320000Y-147320000D02*
X135000000Y-140000000D01*
X212090000Y-147320000D02*
X142320000Y-147320000D01*
X213360000Y-146050000D02*
X212090000Y-147320000D01*
X214630000Y-143510000D02*
X213360000Y-143510000D01*
X161050000Y-146050000D02*
X155000000Y-140000000D01*
X210820000Y-146050000D02*
X161050000Y-146050000D01*
X213360000Y-143510000D02*
X210820000Y-146050000D01*
X214630000Y-140970000D02*
X213360000Y-140970000D01*
X179780000Y-144780000D02*
X175000000Y-140000000D01*
X209550000Y-144780000D02*
X179780000Y-144780000D01*
X213360000Y-140970000D02*
X209550000Y-144780000D01*
X214630000Y-138430000D02*
X213360000Y-138430000D01*
X198510000Y-143510000D02*
X195000000Y-140000000D01*
X208280000Y-143510000D02*
X198510000Y-143510000D01*
X213360000Y-138430000D02*
X208280000Y-143510000D01*
X214630000Y-135890000D02*
X213360000Y-135890000D01*
X67080000Y-132080000D02*
X55000000Y-120000000D01*
X209550000Y-132080000D02*
X67080000Y-132080000D01*
X213360000Y-135890000D02*
X209550000Y-132080000D01*
X214630000Y-133350000D02*
X213360000Y-133350000D01*
X85810000Y-130810000D02*
X75000000Y-120000000D01*
X210820000Y-130810000D02*
X85810000Y-130810000D01*
X213360000Y-133350000D02*
X210820000Y-130810000D01*
X214630000Y-130810000D02*
X213360000Y-130810000D01*
X104540000Y-129540000D02*
X95000000Y-120000000D01*
X212090000Y-129540000D02*
X104540000Y-129540000D01*
X213360000Y-130810000D02*
X212090000Y-129540000D01*
X214630000Y-128270000D02*
X123270000Y-128270000D01*
X123270000Y-128270000D02*
X115000000Y-120000000D01*
X214630000Y-125730000D02*
X213360000Y-125730000D01*
X142000000Y-127000000D02*
X135000000Y-120000000D01*
X212090000Y-127000000D02*
X142000000Y-127000000D01*
X213360000Y-125730000D02*
X212090000Y-127000000D01*
X214630000Y-123190000D02*
X213360000Y-123190000D01*
X160730000Y-125730000D02*
X155000000Y-120000000D01*
X210820000Y-125730000D02*
X160730000Y-125730000D01*
X213360000Y-123190000D02*
X210820000Y-125730000D01*
X214630000Y-120650000D02*
X213360000Y-120650000D01*
X179460000Y-124460000D02*
X175000000Y-120000000D01*
X209550000Y-124460000D02*
X179460000Y-124460000D01*
X213360000Y-120650000D02*
X209550000Y-124460000D01*
X214630000Y-118110000D02*
X213360000Y-118110000D01*
X198190000Y-123190000D02*
X195000000Y-120000000D01*
X208280000Y-123190000D02*
X198190000Y-123190000D01*
X213360000Y-118110000D02*
X208280000Y-123190000D01*
X214630000Y-115570000D02*
X213360000Y-115570000D01*
X66760000Y-111760000D02*
X55000000Y-100000000D01*
X209550000Y-111760000D02*
X66760000Y-111760000D01*
X213360000Y-115570000D02*
X209550000Y-111760000D01*
X214630000Y-113030000D02*
X213360000Y-113030000D01*
X85490000Y-110490000D02*
X75000000Y-100000000D01*
X210820000Y-110490000D02*
X85490000Y-110490000D01*
X213360000Y-113030000D02*
X210820000Y-110490000D01*
X214630000Y-110490000D02*
X213360000Y-110490000D01*
X104220000Y-109220000D02*
X95000000Y-100000000D01*
X212090000Y-109220000D02*
X104220000Y-109220000D01*
X213360000Y-110490000D02*
X212090000Y-109220000D01*
X214630000Y-107950000D02*
X122950000Y-107950000D01*
X122950000Y-107950000D02*
X115000000Y-100000000D01*
X214630000Y-105410000D02*
X213360000Y-105410000D01*
X141680000Y-106680000D02*
X135000000Y-100000000D01*
X212090000Y-106680000D02*
X141680000Y-106680000D01*
X213360000Y-105410000D02*
X212090000Y-106680000D01*
X214630000Y-102870000D02*
X213360000Y-102870000D01*
X160410000Y-105410000D02*
X155000000Y-100000000D01*
X210820000Y-105410000D02*
X160410000Y-105410000D01*
X213360000Y-102870000D02*
X210820000Y-105410000D01*
X214630000Y-100330000D02*
X213360000Y-100330000D01*
X179140000Y-104140000D02*
X175000000Y-100000000D01*
X209550000Y-104140000D02*
X179140000Y-104140000D01*
X213360000Y-100330000D02*
X209550000Y-104140000D01*
X214630000Y-97790000D02*
X213360000Y-97790000D01*
X197870000Y-102870000D02*
X195000000Y-100000000D01*
X208280000Y-102870000D02*
X197870000Y-102870000D01*
X213360000Y-97790000D02*
X208280000Y-102870000D01*
X214630000Y-95250000D02*
X213360000Y-95250000D01*
X66440000Y-91440000D02*
X55000000Y-80000000D01*
X209550000Y-91440000D02*
X66440000Y-91440000D01*
X213360000Y-95250000D02*
X209550000Y-91440000D01*
X214630000Y-92710000D02*
X213360000Y-92710000D01*
X85170000Y-90170000D02*
X75000000Y-80000000D01*
X210820000Y-90170000D02*
X85170000Y-90170000D01*
X213360000Y-92710000D02*
X210820000Y-90170000D01*
X214630000Y-90170000D02*
X213360000Y-90170000D01*
X103900000Y-88900000D02*
X95000000Y-80000000D01*
X212090000Y-88900000D02*
X103900000Y-88900000D01*
X213360000Y-90170000D02*
X212090000Y-88900000D01*
X214630000Y-87630000D02*
X122630000Y-87630000D01*
X122630000Y-87630000D02*
X115000000Y-80000000D01*
X214630000Y-85090000D02*
X213360000Y-85090000D01*
X141360000Y-86360000D02*
X135000000Y-80000000D01*
X212090000Y-86360000D02*
X141360000Y-86360000D01*
X213360000Y-85090000D02*
X212090000Y-86360000D01*
X214630000Y-82550000D02*
X213360000Y-82550000D01*
X160090000Y-85090000D02*
X155000000Y-80000000D01*
X210820000Y-85090000D02*
X160090000Y-85090000D01*
X213360000Y-82550000D02*
X210820000Y-85090000D01*
X214630000Y-80010000D02*
X213360000Y-80010000D01*
X178820000Y-83820000D02*
X175000000Y-80000000D01*
X209550000Y-83820000D02*
X178820000Y-83820000D01*
X213360000Y-80010000D02*
X209550000Y-83820000D01*
X214630000Y-77470000D02*
X213360000Y-77470000D01*
X197550000Y-82550000D02*
X195000000Y-80000000D01*
X208280000Y-82550000D02*
X197550000Y-82550000D01*
X213360000Y-77470000D02*
X208280000Y-82550000D01*
X214630000Y-74930000D02*
X213360000Y-74930000D01*
X67390000Y-72390000D02*
X55000000Y-60000000D01*
X210820000Y-72390000D02*
X67390000Y-72390000D01*
X213360000Y-74930000D02*
X210820000Y-72390000D01*
X214630000Y-72390000D02*
X213360000Y-72390000D01*
X86120000Y-71120000D02*
X75000000Y-60000000D01*
X212090000Y-71120000D02*
X86120000Y-71120000D01*
X213360000Y-72390000D02*
X212090000Y-71120000D01*
X214630000Y-69850000D02*
X104850000Y-69850000D01*
X104850000Y-69850000D02*
X95000000Y-60000000D01*
X214630000Y-67310000D02*
X213529998Y-67310000D01*
X123580000Y-68580000D02*
X115000000Y-60000000D01*
X212259998Y-68580000D02*
X123580000Y-68580000D01*
X213529998Y-67310000D02*
X212259998Y-68580000D01*
X214630000Y-64770000D02*
X213360000Y-64770000D01*
X142310000Y-67310000D02*
X135000000Y-60000000D01*
X210820000Y-67310000D02*
X142310000Y-67310000D01*
X213360000Y-64770000D02*
X210820000Y-67310000D01*
X214630000Y-62230000D02*
X213360000Y-62230000D01*
X161040000Y-66040000D02*
X155000000Y-60000000D01*
X209550000Y-66040000D02*
X161040000Y-66040000D01*
X213360000Y-62230000D02*
X209550000Y-66040000D01*
X214630000Y-59690000D02*
X213360000Y-59690000D01*
X179770000Y-64770000D02*
X175000000Y-60000000D01*
X208280000Y-64770000D02*
X179770000Y-64770000D01*
X213360000Y-59690000D02*
X208280000Y-64770000D01*
X214630000Y-57150000D02*
X213360000Y-57150000D01*
X198500000Y-63500000D02*
X195000000Y-60000000D01*
X207010000Y-63500000D02*
X198500000Y-63500000D01*
X213360000Y-57150000D02*
X207010000Y-63500000D01*
X214630000Y-34290000D02*
X213360000Y-34290000D01*
X65630000Y-39370000D02*
X55000000Y-50000000D01*
X208280000Y-39370000D02*
X65630000Y-39370000D01*
X213360000Y-34290000D02*
X208280000Y-39370000D01*
X214630000Y-36830000D02*
X213360000Y-36830000D01*
X84360000Y-40640000D02*
X75000000Y-50000000D01*
X209550000Y-40640000D02*
X84360000Y-40640000D01*
X213360000Y-36830000D02*
X209550000Y-40640000D01*
X214630000Y-39370000D02*
X213360000Y-39370000D01*
X103090000Y-41910000D02*
X95000000Y-50000000D01*
X210820000Y-41910000D02*
X103090000Y-41910000D01*
X213360000Y-39370000D02*
X210820000Y-41910000D01*
X214630000Y-41910000D02*
X213360000Y-41910000D01*
X121650002Y-43349998D02*
X115000000Y-50000000D01*
X211920002Y-43349998D02*
X121650002Y-43349998D01*
X213360000Y-41910000D02*
X211920002Y-43349998D01*
X214630000Y-44450000D02*
X140550000Y-44450000D01*
X140550000Y-44450000D02*
X135000000Y-50000000D01*
X214630000Y-46990000D02*
X213360000Y-46990000D01*
X159280000Y-45720000D02*
X155000000Y-50000000D01*
X212090000Y-45720000D02*
X159280000Y-45720000D01*
X213360000Y-46990000D02*
X212090000Y-45720000D01*
X214630000Y-49530000D02*
X213360000Y-49530000D01*
X178010000Y-46990000D02*
X175000000Y-50000000D01*
X210820000Y-46990000D02*
X178010000Y-46990000D01*
X213360000Y-49530000D02*
X210820000Y-46990000D01*
X214630000Y-52070000D02*
X213360000Y-52070000D01*
X196909998Y-48090002D02*
X195000000Y-50000000D01*
X209380002Y-48090002D02*
X196909998Y-48090002D01*
X213360000Y-52070000D02*
X209380002Y-48090002D01*
M02*
